<svg xmlns="http://www.w3.org/2000/svg" viewBox="0 0 82 112" role="img" aria-label="full jar">
  <g stroke="#6B4226" stroke-linecap="round" stroke-linejoin="round">
    <ellipse cx="42" cy="106" rx="28" ry="4.5" fill="#C9A87A" opacity=".22" stroke="none"/>
    <path d="M18 35c-3 6-5 17-5 31 0 17 2 29 6 35 4 5 13 7 23 7s19-2 23-7c4-6 6-18 6-35 0-14-2-25-5-31z" fill="#FFF8EC" stroke-width="3"/>
    <path d="M25 25c-3 3-5 7-7 10h48c-2-3-4-7-7-10z" fill="#FFFDF6" stroke-width="3"/>
    <rect x="22" y="14" width="40" height="13" rx="4" fill="#E8C46B" stroke-width="3"/>
    <ellipse cx="42" cy="14" rx="9" ry="4.4" fill="#D9A84A" stroke-width="2.5"/>
    <path d="M22 47c-2 12-2 28 .3 39" fill="none" stroke="#FFFFFF" stroke-width="3" opacity=".75"/>
    <ellipse cx="32" cy="77" rx="13.5" ry="10" fill="#F3A0AD" stroke-width="2.7"/>
    <ellipse cx="54" cy="76" rx="13.5" ry="10" fill="#A8C4E4" stroke-width="2.7"/>
    <circle cx="43" cy="85" r="13.5" fill="#F6DA73" stroke-width="2.7"/>
  </g>
</svg>
